<svg width="134px" height="121px" xmlns="http://www.w3.org/2000/svg" viewBox="182.81716918945312 14.300000000000004 134.36566162109375 121.39999999999999" style="background: rgba(0, 0, 0, 0);" preserveAspectRatio="xMidYMid"><defs><filter id="editing-extrusion" x="-100%" y="-100%" width="300%" height="300%"><feFlood result="color1" flood-color="#444"></feFlood><feConvolveMatrix order="8,8" divisor="1" kernelMatrix="1 0 0 0 0 0 0 0 0 1 0 0 0 0 0 0 0 0 1 0 0 0 0 0 0 0 0 1 0 0 0 0 0 0 0 0 1 0 0 0 0 0 0 0 0 1 0 0 0 0 0 0 0 0 1 0 0 0 0 0 0 0 0 1" in="SourceAlpha" result="extrude"></feConvolveMatrix><feComposite in="color1" in2="extrude" result="comp-extrude" operator="in"></feComposite><feOffset dx="4" dy="4" in="comp-extrude" result="offset-extrude"></feOffset><feMerge><feMergeNode in="offset-extrude"></feMergeNode><feMergeNode in="SourceGraphic"></feMergeNode></feMerge></filter></defs><g filter="url(#editing-extrusion)"><g transform="translate(209.07501435279846, 102.90499877929688)"><path d="M42.62-26.56L42.62-26.56L42.62-26.56Q42.62 0.70 13.06 0.70L13.06 0.70L13.06 0.70Q8.32 0.70 0.51-0.45L0.51-0.45L7.68-38.27L7.68-38.27Q8.19-40.83 8.51-42.30L8.51-42.30L8.51-42.30Q18.24-43.01 22.56-43.01L22.56-43.01L22.56-43.01Q26.88-43.01 30.85-42.11L30.85-42.11L30.85-42.11Q34.82-41.22 37.44-39.23L37.44-39.23L37.44-39.23Q42.62-35.33 42.62-26.56ZM29.44-28.93L29.44-28.93L29.44-28.93Q29.44-38.46 22.59-38.46L22.59-38.46L21.95-38.46L21.95-38.46Q21.63-38.46 21.31-38.40L21.31-38.40L14.72-4.03L14.72-4.03Q14.98-3.90 15.23-3.90L15.23-3.90L15.74-3.90L15.74-3.90Q18.11-3.90 20.58-5.38L20.58-5.38L20.58-5.38Q23.04-6.85 24.96-9.86L24.96-9.86L24.96-9.86Q29.44-16.83 29.44-28.93ZM75.71-4.38L75.71-4.38L75.71-4.38Q73.02-1.66 69.34-0.19L69.34-0.19L69.34-0.19Q65.66 1.28 62.02 1.28L62.02 1.28L62.02 1.28Q58.37 1.28 57.09 0.64L57.09 0.64L55.10 11.52L42.11 12.80L50.94-32.64L61.38-33.73L60.54-29.31L60.54-29.31Q63.23-33.86 68.80-33.86L68.80-33.86L68.80-33.86Q75.07-33.86 78.40-29.82L78.40-29.82L78.40-29.82Q81.34-26.18 81.34-20.61L81.34-20.61L81.34-20.61Q81.34-15.04 79.87-11.07L79.87-11.07L79.87-11.07Q78.40-7.10 75.71-4.38ZM61.25-22.34L57.86-3.58L57.86-3.58Q59.20-2.43 60.86-2.43L60.86-2.43L60.86-2.43Q62.53-2.43 63.49-3.07L63.49-3.07L63.49-3.07Q64.45-3.71 65.15-4.99L65.15-4.99L65.15-4.99Q67.07-8.45 68.61-18.94L68.61-18.94L68.61-18.94Q69.06-22.02 69.06-25.02L69.06-25.02L69.06-25.02Q69.06-28.03 68.38-28.99L68.38-28.99L68.38-28.99Q67.71-29.95 66.43-29.95L66.43-29.95L66.43-29.95Q62.53-29.95 61.25-22.34L61.25-22.34Z" fill="#ccc"></path></g></g><style>text {
  font-size: 64px;
  font-family: Arial Black;
  dominant-baseline: central;
  text-anchor: middle;
}</style></svg>